<svg xmlns="http://www.w3.org/2000/svg" xmlns:xlink="http://www.w3.org/1999/xlink" width="392" zoomAndPan="magnify" viewBox="0 0 294 293.999989" height="392" preserveAspectRatio="xMidYMid meet" version="1.0"><defs><clipPath id="4d54e0d98d"><path d="M 0 0 L 293.558594 0 L 293.558594 293.558594 L 0 293.558594 Z M 0 0 " clip-rule="nonzero"/></clipPath><clipPath id="b330269c69"><path d="M 146.78125 0 C 65.714844 0 0 65.714844 0 146.78125 C 0 227.84375 65.714844 293.558594 146.78125 293.558594 C 227.84375 293.558594 293.558594 227.84375 293.558594 146.78125 C 293.558594 65.714844 227.84375 0 146.78125 0 Z M 146.78125 0 " clip-rule="nonzero"/></clipPath><clipPath id="cd6c96f434"><path d="M 0 0 L 293.558594 0 L 293.558594 293.558594 L 0 293.558594 Z M 0 0 " clip-rule="nonzero"/></clipPath><clipPath id="f9d5798ace"><path d="M 146.78125 0 C 65.714844 0 0 65.714844 0 146.78125 C 0 227.84375 65.714844 293.558594 146.78125 293.558594 C 227.84375 293.558594 293.558594 227.84375 293.558594 146.78125 C 293.558594 65.714844 227.84375 0 146.78125 0 Z M 146.78125 0 " clip-rule="nonzero"/></clipPath><clipPath id="62a8ca004a"><rect x="0" width="294" y="0" height="294"/></clipPath><clipPath id="b02db2123f"><path d="M 81 69.171875 L 212.980469 69.171875 L 212.980469 114 L 81 114 Z M 81 69.171875 " clip-rule="nonzero"/></clipPath><clipPath id="7c8954fb24"><path d="M 110 180 L 184 180 L 184 224.421875 L 110 224.421875 Z M 110 180 " clip-rule="nonzero"/></clipPath></defs><g clip-path="url(#4d54e0d98d)"><g clip-path="url(#b330269c69)"><g transform="matrix(1, 0, 0, 1, 0, 0)"><g clip-path="url(#62a8ca004a)"><g clip-path="url(#cd6c96f434)"><g clip-path="url(#f9d5798ace)"><path fill="#2a3242" d="M 0 0 L 293.558594 0 L 293.558594 293.558594 L 0 293.558594 Z M 0 0 " fill-opacity="1" fill-rule="nonzero"/></g></g></g></g></g></g><g clip-path="url(#b02db2123f)"><path fill="#caa3f0" d="M 209.671875 73.089844 C 208.617188 71.847656 207.351562 70.882812 205.871094 70.199219 C 204.390625 69.511719 202.835938 69.171875 201.207031 69.171875 L 92.347656 69.171875 C 91.945312 69.171875 91.542969 69.195312 91.144531 69.238281 C 90.746094 69.28125 90.351562 69.347656 89.957031 69.433594 C 89.566406 69.519531 89.179688 69.625 88.800781 69.753906 C 88.417969 69.882812 88.046875 70.03125 87.683594 70.199219 C 87.320312 70.367188 86.964844 70.558594 86.621094 70.765625 C 86.277344 70.972656 85.945312 71.195312 85.625 71.441406 C 85.308594 71.683594 85.003906 71.941406 84.710938 72.21875 C 84.421875 72.496094 84.144531 72.785156 83.886719 73.09375 C 83.625 73.398438 83.382812 73.71875 83.160156 74.050781 C 82.933594 74.382812 82.726562 74.726562 82.539062 75.082031 C 82.351562 75.4375 82.1875 75.800781 82.039062 76.175781 C 81.890625 76.546875 81.761719 76.929688 81.65625 77.316406 C 81.550781 77.703125 81.464844 78.09375 81.398438 78.488281 C 81.335938 78.886719 81.292969 79.285156 81.273438 79.6875 C 81.25 80.085938 81.253906 80.488281 81.277344 80.886719 C 81.296875 81.289062 81.34375 81.6875 81.410156 82.082031 L 85.105469 104.257812 C 85.210938 104.898438 85.371094 105.527344 85.589844 106.140625 C 85.804688 106.757812 86.074219 107.347656 86.394531 107.914062 C 86.714844 108.480469 87.082031 109.015625 87.496094 109.515625 C 87.914062 110.019531 88.367188 110.480469 88.867188 110.902344 C 89.363281 111.324219 89.894531 111.695312 90.457031 112.023438 C 91.019531 112.351562 91.605469 112.628906 92.21875 112.851562 C 92.832031 113.074219 93.457031 113.242188 94.097656 113.355469 C 94.738281 113.464844 95.386719 113.523438 96.039062 113.519531 L 197.515625 113.519531 C 198.167969 113.523438 198.8125 113.464844 199.453125 113.355469 C 200.097656 113.242188 200.722656 113.074219 201.335938 112.851562 C 201.945312 112.628906 202.535156 112.351562 203.097656 112.023438 C 203.660156 111.695312 204.191406 111.324219 204.6875 110.902344 C 205.183594 110.480469 205.640625 110.019531 206.054688 109.515625 C 206.472656 109.015625 206.839844 108.480469 207.160156 107.914062 C 207.480469 107.347656 207.75 106.757812 207.964844 106.140625 C 208.179688 105.527344 208.339844 104.898438 208.445312 104.257812 L 212.144531 82.082031 C 212.414062 80.476562 212.332031 78.886719 211.898438 77.316406 C 211.46875 75.742188 210.726562 74.335938 209.671875 73.089844 Z M 209.671875 73.089844 " fill-opacity="1" fill-rule="nonzero"/></g><path fill="#caa3f0" d="M 188.976562 124.605469 L 104.574219 124.605469 C 104.136719 124.605469 103.699219 124.632812 103.265625 124.683594 C 102.832031 124.734375 102.398438 124.808594 101.972656 124.914062 C 101.546875 125.015625 101.128906 125.140625 100.71875 125.292969 C 100.308594 125.445312 99.910156 125.621094 99.519531 125.820312 C 99.128906 126.019531 98.75 126.238281 98.386719 126.484375 C 98.023438 126.726562 97.675781 126.992188 97.34375 127.277344 C 97.011719 127.5625 96.695312 127.867188 96.402344 128.1875 C 96.105469 128.511719 95.828125 128.847656 95.570312 129.203125 C 95.316406 129.558594 95.082031 129.929688 94.867188 130.3125 C 94.65625 130.695312 94.464844 131.085938 94.300781 131.492188 C 94.132812 131.898438 93.992188 132.3125 93.875 132.734375 C 93.757812 133.15625 93.667969 133.582031 93.601562 134.015625 C 93.535156 134.449219 93.496094 134.882812 93.480469 135.320312 C 93.464844 135.757812 93.476562 136.195312 93.515625 136.632812 C 93.550781 137.070312 93.613281 137.5 93.703125 137.929688 C 93.789062 138.359375 93.902344 138.78125 94.042969 139.195312 L 101.429688 161.371094 C 101.613281 161.917969 101.839844 162.453125 102.105469 162.964844 C 102.371094 163.480469 102.675781 163.96875 103.019531 164.4375 C 103.363281 164.902344 103.742188 165.339844 104.152344 165.746094 C 104.5625 166.15625 105.003906 166.527344 105.472656 166.867188 C 105.945312 167.203125 106.4375 167.503906 106.953125 167.765625 C 107.472656 168.023438 108.007812 168.246094 108.558594 168.421875 C 109.109375 168.597656 109.671875 168.730469 110.242188 168.820312 C 110.816406 168.910156 111.390625 168.953125 111.96875 168.953125 L 181.582031 168.953125 C 182.164062 168.953125 182.738281 168.910156 183.308594 168.820312 C 183.882812 168.730469 184.441406 168.597656 184.992188 168.421875 C 185.546875 168.242188 186.078125 168.023438 186.59375 167.761719 C 187.113281 167.5 187.605469 167.203125 188.074219 166.863281 C 188.546875 166.527344 188.984375 166.152344 189.398438 165.746094 C 189.808594 165.339844 190.183594 164.902344 190.527344 164.433594 C 190.871094 163.96875 191.175781 163.480469 191.441406 162.964844 C 191.707031 162.449219 191.933594 161.917969 192.117188 161.371094 L 199.503906 139.195312 C 199.644531 138.78125 199.757812 138.359375 199.84375 137.929688 C 199.933594 137.5 199.996094 137.070312 200.035156 136.632812 C 200.070312 136.195312 200.082031 135.761719 200.066406 135.324219 C 200.050781 134.886719 200.011719 134.449219 199.945312 134.015625 C 199.878906 133.585938 199.789062 133.15625 199.671875 132.734375 C 199.554688 132.3125 199.414062 131.898438 199.246094 131.496094 C 199.082031 131.089844 198.894531 130.695312 198.679688 130.3125 C 198.46875 129.929688 198.234375 129.5625 197.976562 129.207031 C 197.722656 128.851562 197.445312 128.511719 197.148438 128.191406 C 196.851562 127.867188 196.539062 127.5625 196.207031 127.277344 C 195.875 126.996094 195.527344 126.730469 195.164062 126.484375 C 194.800781 126.242188 194.421875 126.019531 194.03125 125.820312 C 193.644531 125.621094 193.242188 125.445312 192.832031 125.292969 C 192.421875 125.144531 192.003906 125.015625 191.578125 124.914062 C 191.152344 124.8125 190.722656 124.734375 190.285156 124.683594 C 189.851562 124.632812 189.417969 124.605469 188.976562 124.605469 Z M 188.976562 124.605469 " fill-opacity="1" fill-rule="nonzero"/><g clip-path="url(#7c8954fb24)"><path fill="#caa3f0" d="M 172.347656 180.039062 L 121.203125 180.039062 C 120.765625 180.039062 120.332031 180.066406 119.894531 180.117188 C 119.460938 180.167969 119.03125 180.242188 118.605469 180.347656 C 118.179688 180.449219 117.761719 180.574219 117.351562 180.726562 C 116.9375 180.878906 116.539062 181.054688 116.148438 181.253906 C 115.757812 181.453125 115.382812 181.671875 115.019531 181.917969 C 114.65625 182.160156 114.304688 182.425781 113.972656 182.710938 C 113.640625 182.996094 113.328125 183.300781 113.03125 183.621094 C 112.734375 183.945312 112.457031 184.28125 112.203125 184.636719 C 111.945312 184.992188 111.710938 185.363281 111.5 185.746094 C 111.285156 186.128906 111.097656 186.519531 110.929688 186.925781 C 110.765625 187.332031 110.625 187.746094 110.507812 188.167969 C 110.390625 188.589844 110.296875 189.015625 110.230469 189.449219 C 110.164062 189.882812 110.125 190.316406 110.109375 190.753906 C 110.097656 191.191406 110.105469 191.628906 110.144531 192.066406 C 110.179688 192.503906 110.242188 192.933594 110.332031 193.363281 C 110.421875 193.792969 110.535156 194.214844 110.671875 194.628906 L 118.0625 216.804688 C 118.246094 217.351562 118.46875 217.886719 118.734375 218.398438 C 119.003906 218.914062 119.308594 219.402344 119.648438 219.871094 C 119.992188 220.335938 120.371094 220.773438 120.78125 221.179688 C 121.195312 221.589844 121.632812 221.960938 122.105469 222.300781 C 122.574219 222.636719 123.066406 222.9375 123.585938 223.199219 C 124.101562 223.460938 124.636719 223.679688 125.1875 223.855469 C 125.738281 224.03125 126.300781 224.164062 126.871094 224.253906 C 127.445312 224.34375 128.019531 224.386719 128.601562 224.386719 L 164.953125 224.386719 C 165.53125 224.386719 166.109375 224.34375 166.679688 224.253906 C 167.25 224.164062 167.8125 224.03125 168.363281 223.855469 C 168.914062 223.675781 169.449219 223.457031 169.964844 223.195312 C 170.480469 222.9375 170.976562 222.636719 171.445312 222.296875 C 171.914062 221.960938 172.355469 221.585938 172.765625 221.179688 C 173.179688 220.773438 173.554688 220.335938 173.898438 219.871094 C 174.242188 219.402344 174.546875 218.914062 174.8125 218.398438 C 175.078125 217.886719 175.304688 217.351562 175.484375 216.804688 L 182.875 194.628906 C 183.011719 194.214844 183.125 193.792969 183.214844 193.363281 C 183.304688 192.9375 183.367188 192.503906 183.402344 192.066406 C 183.441406 191.628906 183.453125 191.195312 183.4375 190.757812 C 183.421875 190.320312 183.382812 189.882812 183.316406 189.449219 C 183.25 189.019531 183.15625 188.589844 183.042969 188.167969 C 182.925781 187.746094 182.78125 187.332031 182.617188 186.929688 C 182.453125 186.523438 182.261719 186.128906 182.050781 185.746094 C 181.835938 185.363281 181.601562 184.996094 181.347656 184.640625 C 181.089844 184.285156 180.816406 183.945312 180.519531 183.625 C 180.222656 183.300781 179.90625 183 179.574219 182.714844 C 179.242188 182.429688 178.894531 182.164062 178.53125 181.917969 C 178.167969 181.675781 177.792969 181.453125 177.402344 181.253906 C 177.011719 181.054688 176.613281 180.878906 176.203125 180.726562 C 175.792969 180.578125 175.375 180.449219 174.949219 180.347656 C 174.523438 180.246094 174.089844 180.167969 173.65625 180.117188 C 173.222656 180.066406 172.785156 180.039062 172.347656 180.039062 Z M 172.347656 180.039062 " fill-opacity="1" fill-rule="nonzero"/></g></svg>